<svg width="261" height="183" viewBox="0 0 261 183" fill="none" xmlns="http://www.w3.org/2000/svg">
<g filter="url(#filter0_f_160_59)">
<path d="M121.775 72.3304L146.446 83.6451H155.229L165.149 89.2348L195.591 85.9841L192.747 83.6451L169.682 69.7307L179.473 59.7077L195.591 81.9207V79.3473L199.519 75.8257L207.104 48.0595L230.672 54.8317L204.124 75.8257L205.343 80.8372L203.312 89.2348L207.104 116.439L177.577 108.843L197.081 90.3183L166.374 93.5272V99.531L160.248 101.859V104.922H165.149L169.682 108.843L165.149 117.052L153.999 119.625L146.446 116.439L145.177 111.661H142.114H132.189L123.735 126.977L145.177 121.34L151.548 129.305L123 130.285L120.059 133.47L136.233 145.845L119.202 152.339L116.016 138.494L113.811 137.024L112.708 132.123L82.5668 143.272L77.9109 126.977L113.811 128.079L121.775 125.261L129.861 110.313L101.558 96.9579L61.615 104.064L76.5631 111.661L58.4295 117.787L54.8761 108.23L51.813 107.373V104.064V100.879L52.9157 96.2228L30.9838 104.922V86.1757L53.7734 93.6498L50.8328 87.2785L40.6633 66.0817H60.8799L58.4295 86.1757L56.2239 89.974L56.9591 93.6498L60.8799 96.9579V100.879L100.701 92.547V82.3775L110.012 72.3304L115.158 70.37L114.546 62.1608L112.953 58.9752L112.218 54.4417L116.751 51.011L97.8824 45.1298L94.4516 31.407L121.775 50.1534L139.663 30.0593L147.995 44.2722L123.368 52.6039L136.723 66.0817L135.375 72.3304L121.775 57.6274L120.059 61.1807L121.775 72.3304Z" fill="#0B5EC4"/>
</g>
<g filter="url(#filter1_f_160_59)">
<path d="M61.8802 99.6472L99.7006 91.7341V81.985L99.9672 81.6979L109.279 71.6511L109.438 71.4792L109.657 71.3962L114.106 69.6999L113.562 62.4294L112.059 59.4225L111.991 59.2858L111.966 59.1354L111.231 54.6022L111.134 54.0075L111.615 53.6442L114.597 51.3864L97.5853 46.0847L97.0482 45.9177L96.9125 45.3727L93.4818 31.6491L92.8412 29.0895L95.017 30.5827L121.613 48.8298L138.916 29.3942L139.83 28.3669L140.526 29.5534L148.858 43.7663L149.479 44.8259L148.316 45.2194L125.204 53.0378L137.433 65.3776L137.815 65.7624L137.701 66.2927L136.353 72.5417L135.947 74.4216L134.641 73.0095L122.036 59.3835L121.095 61.3347L122.681 71.6452L146.664 82.6452H155.492L155.72 82.7741L165.361 88.2067L193.115 85.2429L192.166 84.4626L169.165 70.5866L168.084 69.9352L168.967 69.0319L178.758 59.0085L179.586 58.1608L180.283 59.1208L194.618 78.8766L194.924 78.6022L198.632 75.277L206.14 47.7956L206.407 46.8181L207.38 47.0983L230.948 53.8708L232.819 54.4079L231.292 55.6159L205.247 76.2116L206.315 80.6013L206.372 80.8366L206.316 81.072L204.328 89.2849L208.095 116.301L208.301 117.78L206.855 117.408L177.328 109.811L175.579 109.361L176.888 108.118L194.26 91.6179L167.374 94.4284V100.22L166.729 100.466L161.247 102.549V103.923H165.521L165.803 104.166L170.336 108.087L170.95 108.617L170.558 109.326L166.024 117.536L165.808 117.926L165.373 118.026L154.224 120.599L153.909 120.673L153.611 120.547L146.057 117.361L145.605 117.171L145.479 116.696L144.408 112.661H132.78L125.739 125.416L144.923 120.374L145.552 120.208L145.958 120.716L152.329 128.68L153.574 130.236L151.582 130.304L123.451 131.269L121.537 133.342L136.84 145.051L138.265 146.141L136.589 146.78L119.558 153.274L118.485 153.683L118.227 152.563L115.13 139.105L113.256 137.856L112.923 137.633L112.835 137.243L111.983 133.456L82.9135 144.211L81.9017 144.585L81.6049 143.548L76.9496 127.252L76.5736 125.935L77.9418 125.977L113.653 127.074L121.078 124.446L128.479 110.766L101.419 97.9977L64.7299 104.525L77.016 110.769L79.1361 111.847L76.8832 112.608L58.7494 118.735L57.8304 119.046L57.4926 118.135L54.1156 109.055L51.5433 108.336L50.8129 108.131V100.762L50.8402 100.648L51.5004 97.8591L31.3529 105.851L29.9838 106.394V84.7956L31.2953 85.2253L51.9027 91.9841L49.931 87.7106L39.7621 66.5143L39.0746 65.0817H62.0092L61.8724 66.2028L59.4222 86.2966L59.3969 86.5007L59.2943 86.6774L57.2777 90.1481L57.8705 93.111L61.5248 96.194L61.8802 96.4929V99.6472Z" stroke="#DBEDFF" stroke-width="2"/>
</g>
<path d="M61.8802 99.6472L99.7006 91.7341V81.985L99.9672 81.6979L109.279 71.6511L109.438 71.4792L109.657 71.3962L114.106 69.6999L113.562 62.4294L112.059 59.4225L111.991 59.2858L111.966 59.1354L111.231 54.6022L111.134 54.0075L111.615 53.6442L114.597 51.3864L97.5853 46.0847L97.0482 45.9177L96.9125 45.3727L93.4818 31.6491L92.8412 29.0895L95.017 30.5827L121.613 48.8298L138.916 29.3942L139.83 28.3669L140.526 29.5534L148.858 43.7663L149.479 44.8259L148.316 45.2194L125.204 53.0378L137.433 65.3776L137.815 65.7624L137.701 66.2927L136.353 72.5417L135.947 74.4216L134.641 73.0095L122.036 59.3835L121.095 61.3347L122.681 71.6452L146.664 82.6452H155.492L155.72 82.7741L165.361 88.2067L193.115 85.2429L192.166 84.4626L169.165 70.5866L168.084 69.9352L168.967 69.0319L178.758 59.0085L179.586 58.1608L180.283 59.1208L194.618 78.8766L194.924 78.6022L198.632 75.277L206.14 47.7956L206.407 46.8181L207.38 47.0983L230.948 53.8708L232.819 54.4079L231.292 55.6159L205.247 76.2116L206.315 80.6013L206.372 80.8366L206.316 81.072L204.328 89.2849L208.095 116.301L208.301 117.78L206.855 117.408L177.328 109.811L175.579 109.361L176.888 108.118L194.26 91.6179L167.374 94.4284V100.22L166.729 100.466L161.247 102.549V103.923H165.521L165.803 104.166L170.336 108.087L170.95 108.617L170.558 109.326L166.024 117.536L165.808 117.926L165.373 118.026L154.224 120.599L153.909 120.673L153.611 120.547L146.057 117.361L145.605 117.171L145.479 116.696L144.408 112.661H132.78L125.739 125.416L144.923 120.374L145.552 120.208L145.958 120.716L152.329 128.68L153.574 130.236L151.582 130.304L123.451 131.269L121.537 133.342L136.84 145.051L138.265 146.141L136.589 146.78L119.558 153.274L118.485 153.683L118.227 152.563L115.13 139.105L113.256 137.856L112.923 137.633L112.835 137.243L111.983 133.456L82.9135 144.211L81.9017 144.585L81.6049 143.548L76.9496 127.252L76.5736 125.935L77.9418 125.977L113.653 127.074L121.078 124.446L128.479 110.766L101.419 97.9977L64.7299 104.525L77.016 110.769L79.1361 111.847L76.8832 112.608L58.7494 118.735L57.8304 119.046L57.4926 118.135L54.1156 109.055L51.5433 108.336L50.8129 108.131V100.762L50.8402 100.648L51.5004 97.8591L31.3529 105.851L29.9838 106.394V84.7956L31.2953 85.2253L51.9027 91.9841L49.931 87.7106L39.7621 66.5143L39.0746 65.0817H62.0092L61.8724 66.2028L59.4222 86.2966L59.3969 86.5007L59.2943 86.6774L57.2777 90.1481L57.8705 93.111L61.5248 96.194L61.8802 96.4929V99.6472Z" stroke="#DBEDFF" stroke-width="2"/>
<defs>
<filter id="filter0_f_160_59" x="0.983765" y="0.0592651" width="259.688" height="182.28" filterUnits="userSpaceOnUse" color-interpolation-filters="sRGB">
<feFlood flood-opacity="0" result="BackgroundImageFix"/>
<feBlend mode="normal" in="SourceGraphic" in2="BackgroundImageFix" result="shape"/>
<feGaussianBlur stdDeviation="15" result="effect1_foregroundBlur_160_59"/>
</filter>
<filter id="filter1_f_160_59" x="18.9838" y="16.6755" width="225.983" height="148.351" filterUnits="userSpaceOnUse" color-interpolation-filters="sRGB">
<feFlood flood-opacity="0" result="BackgroundImageFix"/>
<feBlend mode="normal" in="SourceGraphic" in2="BackgroundImageFix" result="shape"/>
<feGaussianBlur stdDeviation="5" result="effect1_foregroundBlur_160_59"/>
</filter>
</defs>
</svg>
