<svg width="25" height="25" viewBox="0 0 25 25" fill="none" xmlns="http://www.w3.org/2000/svg">
<path d="M9.56934 10.6231C9.56934 9.83156 8.51656 9.62175 8.23725 10.3624C7.56162 12.1539 7.06934 13.7565 7.06934 14.623C7.06934 17.3844 9.30791 19.623 12.0693 19.623C14.8308 19.623 17.0693 17.3844 17.0693 14.623C17.0693 13.6921 16.5011 11.9115 15.7478 9.95979C14.7719 7.43159 14.284 6.16749 13.6817 6.09941C13.4889 6.07762 13.2787 6.11679 13.1067 6.20652C12.5693 6.48693 12.5693 7.86565 12.5693 10.6231C12.5693 11.4515 11.8978 12.1231 11.0693 12.1231C10.2409 12.1231 9.56934 11.4515 9.56934 10.6231Z" stroke="#2B3942" stroke-width="2"/>
</svg>
