<svg width="1246" height="542" viewBox="0 0 1246 542" fill="none" xmlns="http://www.w3.org/2000/svg">
<g filter="url(#filter0_f_160_43)">
<path d="M362.394 159.632L142.997 24.8856L-7.78299 -64.0385L9.58498 -119.616L326.225 114.107L316.096 118.111L368.072 147.528L368.679 150.515L373.835 153.03L375.959 151.458L381.722 150.515L385.362 151.458L395.575 157.694V155.166L397.799 151.458L401.844 149.807H406.798L409.73 147.528L414.584 149.302L418.831 143.336L418.229 138.764L567.02 -75.123H619.561L481.449 111.617L460.654 105.301L428.931 144.16L429.594 147.528L425.338 153.929L426.686 156.062L434.995 151.458L436.232 153.03L429.594 164.483L437.465 165.719L441.848 162.687L448.74 160.104L453.297 161.339L458.463 165.719L470.814 166.617L1034.08 152.858L1009.62 178.031L526.469 190.537L529.097 176.751L467.717 178.538L466.781 176.751L464.653 176.326L462.951 178.538L460.654 179.049L456.484 176.751L448.74 177.517L447.294 181.091L441.848 183.219H436.232L429.594 180.41L427.892 184.07L430.02 190.537L432.033 199.614L443.648 203.037L478.616 211.963L515.363 220.408L517.056 218.561L519.518 217.638L523.057 219.792C523.686 220.844 524.95 223.062 524.981 223.524C525.012 223.986 523.968 226.204 523.442 227.256L529.097 232.911L539.611 248.735H541.946L542.724 238.879L549.121 235.594L556.642 236.113L562.521 239.484V261.27L620.778 275.605L626.707 268.518L637.538 270.613L630.763 278.145L734.743 303.964L747.067 288.825L760.989 291.564C756.779 296.883 748.479 307.295 748.002 307.615C749.941 307.8 882.695 340.832 949.316 357.447L990.798 328.002L994.081 326.211L1018.55 331.583L1019.65 332.876L985.924 367.494L1015.68 372.795L1092.15 317.327L1101.81 314.007L1103.92 309.178L1107.24 303.746L1103.92 302.237L1101.81 296.804L1099.4 289.863H1093.66L1055.94 214.715L1083.1 205.359L1109.66 296.804L1114.48 294.993L1118.71 299.822L1205.93 332.718L1177.86 378.29L1118.71 309.178L1112.35 323.076L1085.11 397.14L1068.9 387.235L1067.17 390.2L1060.33 400.764L1050.03 405.433L1045.78 413.199H1043.86L1040.03 407.348H1027.27L944.116 394.395L910.736 414.408H888.998L886.497 412.677V409.695L911.892 388.705L892.788 386.175L890.434 387.89L887.899 388.705H882.556L877.577 390.878L835.977 386.175L829.926 384.892L826.517 380.367V375.261L790.996 371.01L787.662 380.367L784.22 384.239L777.874 386.175L738.508 378.539L735.712 375.097L732.593 360.9L669.425 350.984L664.588 354.693L649.916 358.934L596.869 361.626L547.25 358.934L535.891 382.006L524.125 397.965L498.217 425.159L499.181 429.466L496.417 432.166L492.745 431.792L490.046 434.779L492.166 438.152L438.509 469.344L442.836 476.848V486.191L438.509 495.408L428.79 501.616H413.929L403.081 495.408L395.063 484.839V469.344L401.584 461.141L408.385 457.361H417.057V433.041L378.209 425.04V434.229L368.688 432.697V446.614L326.277 440.234V443.232L323.637 444.516V440.234H321.639V441.876L318.856 442.447V438.379L303.798 434.739V438.379L300.73 439.164V434.026L279.289 428.847L279.921 412.814L287.936 412.352V402.95L242.66 393.909L238.091 395.367L236.245 391.965L199.761 382.274L202.149 388.667L202.611 396.369L194.909 408.538L184.511 416.009L170.724 414.931L160.866 407.46L158.863 397.139L160.018 389.129L167.292 378.723L160.434 374.471L162.217 362.813L119.425 351.292L89.5253 340.182L70.3408 330.339L57.9701 347.589L62.2312 351.988L56.8705 353.5L41.7508 347.589L42.3693 346.009L52.1276 348.414L66.9426 329.259L53.3626 322.499L51.5151 319.022L52.1276 311.672L41.8904 298.81L38.8196 290.322V280.556L32.7498 278.402L21.7188 270.22L22.5158 259.233L30.1194 253.874L46.4752 254.473L55.3825 245.868L-142.531 274.141L-120.783 255.872L69.3798 230.467L95.6095 211.136L107.302 206.549L153.531 199.911L208.1 201.433L208.392 197.926L196.525 196.757L186.471 189.801L187.874 174.661L194.363 172.79L206.112 175.128L216.159 183.333L222.511 179.948H227.109L229.656 182.866H234.259L234.495 181.489L239.806 180.427L240.179 179.433L278.958 180.314L309.349 186.041L324.658 178.622L357.812 181.067L373.189 168.565L366.489 163.354V158.888L362.394 159.632Z" fill="#2C3A43"/>
</g>
<defs>
<filter id="filter0_f_160_43" x="-182.531" y="-159.616" width="1428.46" height="701.232" filterUnits="userSpaceOnUse" color-interpolation-filters="sRGB">
<feFlood flood-opacity="0" result="BackgroundImageFix"/>
<feBlend mode="normal" in="SourceGraphic" in2="BackgroundImageFix" result="shape"/>
<feGaussianBlur stdDeviation="0" result="effect1_foregroundBlur_160_43"/>
</filter>
</defs>
</svg>
