<svg width="597" height="202" viewBox="0 0 597 202" fill="none" xmlns="http://www.w3.org/2000/svg">
<g clip-path="url(#clip0_238_374)">
<path fill-rule="evenodd" clip-rule="evenodd" d="M44.381 0.862071V24.8034C34.3133 23.5014 25.4436 18.3771 19.2643 10.9636C26.3474 5.46133 34.9649 1.82813 44.381 0.862071ZM54.2806 0.820068V24.8454C64.4954 23.6064 73.4912 18.4611 79.7336 10.9636C72.5664 5.37733 63.8228 1.74412 54.2806 0.820068ZM12.1181 17.81C5.79165 25.1815 1.60904 34.464 0.558128 44.6706H44.381V34.758C31.4969 33.4349 20.084 27.1346 12.0971 17.81H12.1181ZM0.537109 54.5411C1.54598 64.8737 5.74962 74.2613 12.1391 81.7167C20.126 72.4132 31.5179 66.1338 44.381 64.8107V54.5411H0.537109ZM86.8798 81.7167C93.2693 74.2613 97.4729 64.8527 98.4818 54.5411H54.2806V64.7687C67.2908 66.0288 78.8298 72.3292 86.8798 81.7167ZM98.4608 44.6496H54.2806V34.779C67.3118 33.5189 78.8508 27.1976 86.9008 17.789C93.2272 25.1815 97.3888 34.443 98.4398 44.6496H98.4608ZM79.7126 88.5631C72.5454 94.1284 63.8228 97.7616 54.2806 98.6857V74.7233C64.4744 75.9624 73.4491 81.0867 79.7126 88.5631ZM44.402 98.6437C35.0069 97.6776 26.3895 94.0654 19.3274 88.5631C25.5067 81.1707 34.3553 76.0674 44.402 74.7653V98.6437Z" fill="#F5FAFF"/>
<path fill-rule="evenodd" clip-rule="evenodd" d="M160.378 99.0194C160.378 92.236 154.83 86.6917 148.041 86.6917C141.252 86.6917 135.703 92.236 135.703 99.0194C135.703 105.803 141.252 111.347 148.041 111.347C154.83 111.347 160.378 105.803 160.378 99.0194Z" fill="#F5FAFF"/>
<path d="M194.458 16.407L88.2437 117.598H76.9038L182.85 16.407H194.458Z" fill="#F5FAFF" stroke="#F5FAFF" stroke-width="2.11278"/>
<path fill-rule="evenodd" clip-rule="evenodd" d="M196.761 92.8899V82.2633H218.074C220.596 82.2633 222.908 81.3812 224.736 79.9112L241.572 63.6772L224.736 47.6113C222.908 46.1412 220.596 45.2592 218.074 45.2592H196.761V34.6116H218.074C223.076 34.6116 227.7 36.3547 231.336 39.2528L250.042 56.8308L268.664 39.3158C272.322 36.3757 276.967 34.6116 282.011 34.6116H303.323V45.2592H282.011C279.51 45.2592 277.177 46.1412 275.369 47.5903L258.513 63.6772L275.369 79.9112C277.198 81.3812 279.51 82.2423 282.011 82.2423H303.323V92.8899H282.011C276.967 92.8899 272.322 91.1258 268.664 88.1856L250.042 70.5026L231.336 88.2276C227.7 91.1468 223.076 92.8899 218.074 92.8899H196.761ZM404.547 92.8899H393.891V66.5544H329.953V92.8899H319.297V34.6326H329.953V55.9278H393.891V34.6326H404.547V92.8899ZM500.453 45.2802V34.6326H415.203V45.2802H452.489V92.8059H463.146V45.2802H500.432H500.453ZM511.109 92.7009V82.0533H580.364C583.306 82.0533 585.681 79.6591 585.681 76.719V66.5544H527.083C518.276 66.5544 511.109 59.372 511.109 50.5725V34.6116H521.765V50.5725C521.765 53.5127 524.161 55.9068 527.104 55.9068H585.703V34.6116H596.359V76.719C596.359 85.5185 589.171 92.6799 580.385 92.6799L511.109 92.7009Z" fill="#F5FAFF"/>
</g>
<path d="M212.977 136.95H208.589L203.702 130.019L198.915 136.95H194.527L201.508 127.226L194.926 118.001H199.314L203.802 124.384L208.34 118.001H212.578L206.046 127.176L212.977 136.95Z" fill="#F5FAFF"/>
<path d="M219.043 133.559H228.966V136.95H215.253V118.001H228.716V121.392H219.043V125.581H226.473V128.872H219.043V133.559Z" fill="#F5FAFF"/>
<path d="M239.868 118.001C244.256 118.001 246.899 120.295 246.899 123.985C246.899 127.725 244.256 129.969 239.868 129.969H235.68V136.95H231.84V118.001H239.868ZM239.419 126.877C241.763 126.877 243.01 125.93 243.01 124.085C243.01 122.19 241.763 121.242 239.419 121.242H235.68V126.877H239.419Z" fill="#F5FAFF"/>
<path d="M257.453 137.199C251.968 137.199 248.327 133.36 248.327 127.476C248.327 121.691 252.017 117.752 257.453 117.752C261.492 117.752 264.484 119.746 265.581 123.287L261.99 124.583C261.242 122.19 259.647 120.993 257.403 120.993C254.261 120.993 252.217 123.486 252.217 127.476C252.217 131.465 254.211 133.958 257.403 133.958C259.647 133.958 261.242 132.761 261.99 130.368L265.581 131.664C264.484 135.105 261.492 137.199 257.453 137.199Z" fill="#F5FAFF"/>
<path d="M275.935 137.199C270.35 137.199 266.66 133.36 266.66 127.476C266.66 121.691 270.4 117.752 275.935 117.752C281.569 117.752 285.259 121.591 285.259 127.476C285.259 133.26 281.47 137.199 275.935 137.199ZM275.935 133.858C279.176 133.858 281.32 131.365 281.32 127.476C281.32 123.586 279.176 121.093 275.935 121.093C272.693 121.093 270.549 123.586 270.549 127.476C270.549 131.365 272.693 133.858 275.935 133.858Z" fill="#F5FAFF"/>
<path d="M300.7 118.001H304.539V136.95H300.7V128.971H292.223V136.95H288.383V118.001H292.223V125.481H300.7V118.001Z" fill="#F5FAFF"/>
<path d="M316.838 137.199C311.353 137.199 307.713 133.36 307.713 127.476C307.713 121.691 311.403 117.752 316.838 117.752C320.877 117.752 323.869 119.746 324.966 123.287L321.376 124.583C320.628 122.19 319.032 120.993 316.788 120.993C313.647 120.993 311.602 123.486 311.602 127.476C311.602 131.465 313.597 133.958 316.788 133.958C319.032 133.958 320.628 132.761 321.376 130.368L324.966 131.664C323.869 135.105 320.877 137.199 316.838 137.199Z" fill="#F5FAFF"/>
<path d="M335.769 124.982C340.157 124.982 342.849 127.226 342.849 130.966C342.849 134.656 340.157 136.95 335.769 136.95H327.69V118.001H331.53V124.982H335.769ZM335.469 133.709C337.763 133.709 338.96 132.761 338.96 130.866C338.96 129.021 337.763 128.074 335.469 128.074H331.53V133.709H335.469Z" fill="#F5FAFF"/>
<path d="M358.24 136.95L352.206 128.224L349.563 130.866V136.95H345.724V118.001H349.563V126.428L357.641 118.001H362.428L354.899 125.531L362.827 136.95H358.24Z" fill="#F5FAFF"/>
<path d="M377.669 118.001H381.409V136.95H377.669V123.835L368.743 136.95H365.053V118.001H368.843V131.016L377.669 118.001Z" fill="#F5FAFF"/>
<path d="M394.107 116.605C391.314 116.605 389.519 115.209 389.27 112.965L392.012 112.566C392.212 113.713 393.01 114.311 394.107 114.311C395.204 114.311 396.002 113.713 396.201 112.566L398.944 112.965C398.694 115.209 396.899 116.605 394.107 116.605ZM398.545 118.001H402.285V136.95H398.545V123.835L389.619 136.95H385.929V118.001H389.719V131.016L398.545 118.001Z" fill="#F5FAFF"/>
<path d="M209.088 150.001H212.927V168.95H209.088V160.971H200.611V168.95H196.771V150.001H200.611V157.481H209.088V150.001Z" fill="#F5FAFF"/>
<path d="M230.661 168.95L229.165 164.961H220.588L219.093 168.95H215.103L222.583 150.001H227.27L234.75 168.95H230.661ZM221.835 161.62H227.919L224.877 153.392L221.835 161.62Z" fill="#F5FAFF"/>
<path d="M252.783 165.459H255.027V172.939H251.337V168.95H236.926V150.001H240.766V165.459H248.944V150.001H252.783V165.459Z" fill="#F5FAFF"/>
<path d="M257.802 168.95V150.001H261.641V168.95H257.802Z" fill="#F5FAFF"/>
<path d="M274.09 169.199C268.505 169.199 264.815 165.36 264.815 159.476C264.815 153.691 268.555 149.752 274.09 149.752C279.724 149.752 283.414 153.591 283.414 159.476C283.414 165.26 279.625 169.199 274.09 169.199ZM274.09 165.858C277.331 165.858 279.475 163.365 279.475 159.476C279.475 155.586 277.331 153.093 274.09 153.093C270.848 153.093 268.704 155.586 268.704 159.476C268.704 163.365 270.848 165.858 274.09 165.858Z" fill="#F5FAFF"/>
<path d="M298.855 150.001H302.694V168.95H298.855V160.971H290.378V168.95H286.538V150.001H290.378V157.481H298.855V150.001Z" fill="#F5FAFF"/>
<path d="M320.428 168.95L318.932 164.961H310.355L308.859 168.95H304.87L312.35 150.001H317.037L324.517 168.95H320.428ZM311.602 161.62H317.686L314.644 153.392L311.602 161.62Z" fill="#F5FAFF"/>
<path d="M342.7 150.001V168.95H338.86V153.492H331.73V159.176C331.73 166.357 330.882 169.05 327.042 169.05C326.544 169.05 326.045 169.05 324.948 168.95V165.409H325.945C327.491 165.409 327.94 165.21 327.94 158.877V150.001H342.7Z" fill="#F5FAFF"/>
<path d="M355.298 156.982C359.686 156.982 362.379 159.226 362.379 162.966C362.379 166.656 359.686 168.95 355.298 168.95H347.22V150.001H351.059V156.982H355.298ZM354.999 165.709C357.292 165.709 358.489 164.761 358.489 162.866C358.489 161.021 357.292 160.074 354.999 160.074H351.059V165.709H354.999Z" fill="#F5FAFF"/>
<path d="M377.569 150.001H381.409V168.95H377.569V160.971H369.092V168.95H365.253V150.001H369.092V157.481H377.569V150.001Z" fill="#F5FAFF"/>
<path d="M398.545 150.001H402.285V168.95H398.545V155.835L389.619 168.95H385.929V150.001H389.719V163.016L398.545 150.001Z" fill="#F5FAFF"/>
<path d="M414.982 148.605C412.19 148.605 410.395 147.209 410.145 144.965L412.888 144.566C413.087 145.713 413.885 146.311 414.982 146.311C416.079 146.311 416.877 145.713 417.076 144.566L419.819 144.965C419.57 147.209 417.775 148.605 414.982 148.605ZM419.42 150.001H423.16V168.95H419.42V155.835L410.494 168.95H406.804V150.001H410.594V163.016L419.42 150.001Z" fill="#F5FAFF"/>
<path d="M449.652 150.001V153.492H443.12V168.95H439.28V153.492H432.748V150.001H449.652Z" fill="#F5FAFF"/>
<path d="M455.818 165.559H465.741V168.95H452.028V150.001H465.491V153.392H455.818V157.581H463.247V160.872H455.818V165.559Z" fill="#F5FAFF"/>
<path d="M484.821 168.95H480.433L475.546 162.019L470.759 168.95H466.371L473.352 159.226L466.77 150.001H471.158L475.646 156.384L480.184 150.001H484.422L477.89 159.176L484.821 168.95Z" fill="#F5FAFF"/>
<path d="M499.414 150.001H503.253V168.95H499.414V160.971H490.936V168.95H487.097V150.001H490.936V157.481H499.414V150.001Z" fill="#F5FAFF"/>
<path d="M507.773 168.95V150.001H511.612V168.95H507.773Z" fill="#F5FAFF"/>
<path d="M526.704 150.001H530.543V168.95H526.704V161.67H521.817C517.429 161.67 515.035 159.625 515.035 155.686V150.001H518.875V155.337C518.875 157.381 519.922 158.279 522.166 158.279H526.704V150.001Z" fill="#F5FAFF"/>
<path d="M547.38 150.001H551.219V168.95H547.38V160.971H538.903V168.95H535.063V150.001H538.903V157.481H547.38V150.001Z" fill="#F5FAFF"/>
<path d="M568.355 150.001H572.095V168.95H568.355V155.835L559.429 168.95H555.739V150.001H559.529V163.016L568.355 150.001Z" fill="#F5FAFF"/>
<path d="M584.792 148.605C582 148.605 580.205 147.209 579.955 144.965L582.698 144.566C582.897 145.713 583.695 146.311 584.792 146.311C585.889 146.311 586.687 145.713 586.887 144.566L589.629 144.965C589.38 147.209 587.585 148.605 584.792 148.605ZM589.23 150.001H592.97V168.95H589.23V155.835L580.305 168.95H576.615V150.001H580.404V163.016L589.23 150.001Z" fill="#F5FAFF"/>
<path d="M208.739 182.001H212.728L206.844 196.562C205.747 199.304 204.251 201.199 201.309 201.199C198.566 201.199 196.821 199.254 196.721 196.662L199.763 195.914C199.813 197.36 200.411 198.108 201.458 198.108C202.057 198.108 202.605 197.908 203.004 197.36L194.377 182.001H198.666L204.55 193.52L208.739 182.001Z" fill="#F5FAFF"/>
<path d="M227.47 182.001H231.309V200.95H227.47V192.971H218.993V200.95H215.153V182.001H218.993V189.481H227.47V182.001Z" fill="#F5FAFF"/>
<path d="M235.829 200.95V182.001H239.669V200.95H235.829Z" fill="#F5FAFF"/>
<path d="M256.555 191.276C258.35 192.124 259.348 193.67 259.348 195.764C259.348 198.955 257.004 200.95 253.065 200.95H244.189V182.001H252.915C256.705 182.001 258.998 183.946 258.998 187.038C258.998 188.932 258.101 190.428 256.555 191.276ZM252.317 185.143H247.879V189.73H252.317C254.261 189.73 255.259 188.982 255.259 187.436C255.259 185.891 254.261 185.143 252.317 185.143ZM252.366 197.808C254.511 197.808 255.558 197.011 255.558 195.315C255.558 193.62 254.511 192.772 252.366 192.772H247.879V197.808H252.366Z" fill="#F5FAFF"/>
<path d="M266.311 197.559H276.234V200.95H262.521V182.001H275.984V185.392H266.311V189.581H273.741V192.872H266.311V197.559Z" fill="#F5FAFF"/>
<path d="M287.136 182.001C291.524 182.001 294.167 184.295 294.167 187.985C294.167 191.725 291.524 193.969 287.136 193.969H282.948V200.95H279.108V182.001H287.136ZM286.688 190.877C289.031 190.877 290.278 189.93 290.278 188.085C290.278 186.19 289.031 185.242 286.688 185.242H282.948V190.877H286.688Z" fill="#F5FAFF"/>
<path d="M304.721 201.199C299.236 201.199 295.595 197.36 295.595 191.476C295.595 185.691 299.285 181.752 304.721 181.752C308.76 181.752 311.752 183.746 312.849 187.287L309.258 188.583C308.51 186.19 306.915 184.993 304.671 184.993C301.529 184.993 299.485 187.486 299.485 191.476C299.485 195.465 301.479 197.958 304.671 197.958C306.915 197.958 308.51 196.761 309.258 194.368L312.849 195.664C311.752 199.105 308.76 201.199 304.721 201.199Z" fill="#F5FAFF"/>
<path d="M328.189 182.001H331.929V200.95H328.189V187.835L319.263 200.95H315.573V182.001H319.363V195.016L328.189 182.001Z" fill="#F5FAFF"/>
<path d="M351.209 182.001V185.492H344.676V200.95H340.837V185.492H334.305V182.001H351.209Z" fill="#F5FAFF"/>
<path d="M357.374 197.559H367.297V200.95H353.584V182.001H367.048V185.392H357.374V189.581H364.804V192.872H357.374V197.559Z" fill="#F5FAFF"/>
<path d="M384.931 182.001V185.492H378.399V200.95H374.56V185.492H368.027V182.001H384.931Z" fill="#F5FAFF"/>
<defs>
<clipPath id="clip0_238_374">
<rect width="595.652" height="118.044" fill="white" transform="translate(0.737305 0.518799)"/>
</clipPath>
</defs>
</svg>
