<svg width="597" height="119" viewBox="0 0 597 119" fill="none" xmlns="http://www.w3.org/2000/svg">
<g clip-path="url(#clip0_238_375)">
<path fill-rule="evenodd" clip-rule="evenodd" d="M44.381 0.862071V24.8034C34.3133 23.5014 25.4436 18.3771 19.2643 10.9636C26.3474 5.46133 34.9649 1.82813 44.381 0.862071ZM54.2806 0.820068V24.8454C64.4954 23.6064 73.4912 18.4611 79.7336 10.9636C72.5664 5.37733 63.8228 1.74412 54.2806 0.820068ZM12.1181 17.81C5.79165 25.1815 1.60904 34.464 0.558128 44.6706H44.381V34.758C31.4969 33.4349 20.084 27.1346 12.0971 17.81H12.1181ZM0.537109 54.5411C1.54598 64.8737 5.74962 74.2613 12.1391 81.7167C20.126 72.4132 31.5179 66.1338 44.381 64.8107V54.5411H0.537109ZM86.8798 81.7167C93.2693 74.2613 97.4729 64.8527 98.4818 54.5411H54.2806V64.7687C67.2908 66.0288 78.8298 72.3292 86.8798 81.7167ZM98.4608 44.6496H54.2806V34.779C67.3118 33.5189 78.8508 27.1976 86.9008 17.789C93.2272 25.1815 97.3888 34.443 98.4398 44.6496H98.4608ZM79.7126 88.5631C72.5454 94.1284 63.8228 97.7616 54.2806 98.6857V74.7233C64.4744 75.9624 73.4491 81.0867 79.7126 88.5631ZM44.402 98.6437C35.0069 97.6776 26.3895 94.0654 19.3274 88.5631C25.5067 81.1707 34.3553 76.0674 44.402 74.7653V98.6437Z" fill="#F5FAFF"/>
<path fill-rule="evenodd" clip-rule="evenodd" d="M160.378 99.0194C160.378 92.236 154.83 86.6917 148.041 86.6917C141.252 86.6917 135.703 92.236 135.703 99.0194C135.703 105.803 141.252 111.347 148.041 111.347C154.83 111.347 160.378 105.803 160.378 99.0194Z" fill="#F5FAFF"/>
<path d="M194.458 16.407L88.2437 117.598H76.9038L182.85 16.407H194.458Z" fill="#F5FAFF" stroke="#F5FAFF" stroke-width="2.11278"/>
<path fill-rule="evenodd" clip-rule="evenodd" d="M196.761 92.8899V82.2633H218.074C220.596 82.2633 222.908 81.3812 224.736 79.9112L241.572 63.6772L224.736 47.6113C222.908 46.1412 220.596 45.2592 218.074 45.2592H196.761V34.6116H218.074C223.076 34.6116 227.7 36.3547 231.336 39.2528L250.042 56.8308L268.664 39.3158C272.322 36.3757 276.967 34.6116 282.011 34.6116H303.323V45.2592H282.011C279.51 45.2592 277.177 46.1412 275.369 47.5903L258.513 63.6772L275.369 79.9112C277.198 81.3812 279.51 82.2423 282.011 82.2423H303.323V92.8899H282.011C276.967 92.8899 272.322 91.1258 268.664 88.1856L250.042 70.5026L231.336 88.2276C227.7 91.1468 223.076 92.8899 218.074 92.8899H196.761ZM404.547 92.8899H393.891V66.5544H329.953V92.8899H319.297V34.6326H329.953V55.9278H393.891V34.6326H404.547V92.8899ZM500.453 45.2802V34.6326H415.203V45.2802H452.489V92.8059H463.146V45.2802H500.432H500.453ZM511.109 92.7009V82.0533H580.364C583.306 82.0533 585.681 79.6591 585.681 76.719V66.5544H527.083C518.276 66.5544 511.109 59.372 511.109 50.5725V34.6116H521.765V50.5725C521.765 53.5127 524.161 55.9068 527.104 55.9068H585.703V34.6116H596.359V76.719C596.359 85.5185 589.171 92.6799 580.385 92.6799L511.109 92.7009Z" fill="#F5FAFF"/>
</g>
<defs>
<clipPath id="clip0_238_375">
<rect width="595.652" height="118.044" fill="white" transform="translate(0.737305 0.518799)"/>
</clipPath>
</defs>
</svg>
