<svg width="25" height="25" viewBox="0 0 25 25" fill="none" xmlns="http://www.w3.org/2000/svg">
<path d="M15.2495 6.04663C15.6738 6.09206 16.0119 6.28681 16.2808 6.49194C16.565 6.70884 16.8698 7.01654 17.1831 7.32983L17.355 7.50171C17.6683 7.815 17.976 8.11978 18.1929 8.40405C18.4274 8.71142 18.6479 9.10925 18.6479 9.6228C18.6479 10.1364 18.4274 10.5342 18.1929 10.8416C17.976 11.1258 17.6683 11.4306 17.355 11.7439L10.1606 18.9382C10.0036 19.0953 9.8002 19.3114 9.53662 19.4607C9.2729 19.61 8.98265 19.6734 8.76709 19.7273L6.15869 20.3787L6.15674 20.3796L6.11279 20.3904C5.96494 20.4273 5.74357 20.4856 5.54932 20.5046C5.34262 20.5249 4.89075 20.5316 4.52197 20.1628C4.15319 19.7941 4.15996 19.3422 4.18018 19.1355C4.1992 18.9412 4.25747 18.7199 4.29443 18.572L4.95752 15.9177C5.01141 15.7022 5.07481 15.4119 5.22412 15.1482C5.37339 14.8846 5.58951 14.6812 5.74658 14.5242L12.9409 7.32983C13.2542 7.01654 13.559 6.70884 13.8433 6.49194C14.1506 6.25746 14.5485 6.03687 15.062 6.03687L15.2495 6.04663Z" stroke="#2B3942" stroke-width="2"/>
<path d="M12.562 8.1228L15.562 6.1228L18.562 9.1228L16.562 12.1228L12.562 8.1228Z" fill="#2B3942"/>
</svg>
