<svg width="53" height="54" viewBox="0 0 53 54" fill="none" xmlns="http://www.w3.org/2000/svg">
<rect y="0.487549" width="53" height="53" rx="12" fill="#F5FAFF"/>
<path d="M32.2071 29.1707L34.8552 31.8189C35.2113 32.1749 35.2113 32.7523 34.8552 33.1084C32.93 35.0336 29.8821 35.2502 27.704 33.6166L26.1286 32.4351C24.385 31.1274 22.8362 29.5786 21.5286 27.8351L20.347 26.2596C18.7134 24.0815 18.93 21.0336 20.8552 19.1084C21.2113 18.7523 21.7887 18.7523 22.1448 19.1084L24.7929 21.7565C25.1834 22.147 25.1834 22.7802 24.7929 23.1707L23.7717 24.1919C23.6095 24.3542 23.5692 24.6021 23.6719 24.8074C24.8585 27.1807 26.7829 29.1051 29.1563 30.2918C29.3615 30.3944 29.6095 30.3542 29.7717 30.1919L30.7929 29.1707C31.1834 28.7802 31.8166 28.7802 32.2071 29.1707Z" stroke="#33363F" stroke-width="2"/>
</svg>
