<svg width="605" height="856" viewBox="0 0 605 856" fill="none" xmlns="http://www.w3.org/2000/svg">
<g filter="url(#filter0_f_160_55)">
<path d="M272.08 64.6572L289.267 82.0392L289.629 86.475L290.057 93.6006L285.401 101.486L293.05 107.899L294.997 109.8L294.285 112.412L288.869 115.548L289.202 117.78L291.399 121.343L292.147 124.716L291.399 129.179L295.545 137.715V142.471L285.789 148.081L275.058 158.69L287.374 161.007L293.959 170.031L298.349 173.811L309.324 170.031L314.69 166.372L322.86 168.567L327.006 174.543L334.933 177.957H345.298L358.468 179.786L367.248 174.543L380.662 173.811L385.662 170.031L399.808 172.051L405.905 163.446L417.855 161.616L426.27 153.202L436.879 151.617L445.555 144.861L454.926 137.329L463.159 130.41L468.151 134.877L480.062 124.63L487.951 116.476L488.553 112.159L493.02 108.897L501.452 108.545L505.267 106.588L508.078 107.391L509.082 110.854H517.313L524.892 108.796L529.56 102.924L530.012 100.214L531.668 98.0552L534.579 98.4066V102.121L531.116 109.098L537.24 99.6112L538.896 98.8081L541.054 99.6112V102.422H542.209L544.309 103.939L535.339 117.622L528.193 121.727L507.668 126.744L498.85 129.785L480.758 150.31L484.407 156.695L470.723 172.051L444.269 192.88L412.646 214.773L391.056 232.409L360.041 244.268L333.282 255.671L319.903 266.314L327.505 301.738L330.546 331.385V365.898L321.119 369.09L319.599 401.626L313.822 410.748L319.599 428.385L327.201 455.295L331.762 460.92L327.201 465.329L332.978 493L331.762 521.279L332.978 548.646L331.306 580.421L327.961 617.974L323.4 628.617L325.224 638.651V655.071L331.762 659.176V667.082L319.903 674.988L323.4 680.461L319.903 687.303L322.184 692.016V704.787L324.464 714.061L341.948 730.177L356.392 739.147L370.987 741.884L379.502 749.03V762.713L356.392 769.403H337.539L313.214 761.193L284.175 759.368L270.947 754.655V744.165L272.924 740.06L274.9 728.049L279.157 714.061L280.83 699.314L279.157 680.461L274.9 678.637L268.971 671.643V662.673L270.947 649.142L267.299 618.886V596.689L264.41 579.509L267.299 564.457L266.386 554.423L259.089 532.074L252.703 495.585L247.078 497.105L235.675 523.712L227.009 545.301L225.184 564.457L216.518 592.432L215.15 599.882L211.045 627.248L211.805 640.78V660.088L206.636 676.204L208.612 689.279L200.859 699.314H192.344V703.723L196.449 709.5L197.818 722.879L200.859 741.428L207.396 756.632L217.735 764.994L219.559 778.069V788.407L208.612 795.249H185.959L166.042 789.167L164.066 769.859L159.353 748.118L158.288 730.329V704.939L146.125 696.425L149.318 676.204L144.605 662.521L147.798 629.073L146.277 621.471L151.447 610.828V599.882L158.896 579.053V567.65L163.576 557.738V536.093L158.687 461.948L166.216 418.345L163.576 404.363L165.531 389.404L158.687 379.823L151.648 341.594V317.445L155.168 299.944L162.989 286.94L161.034 283.909L150.67 298.379L128.965 328.2L109.704 344.918L96.3094 349.709L80.2749 342.181L61.5028 327.32L56.9075 311.481L59.4496 296.228L58.2763 288.798L70.4977 265.626L86.5322 250.96L82.9147 240.694L87.2166 235.903L85.8478 227.886L89.7587 224.66L90.3453 219.087L97.2834 214.65H43.3796L38.1063 129.107H127.555L130.289 125.787H158.218L160.171 129.107H190.834L185.756 107.624L189.662 93.7574L201.966 74.6176L233.019 60.7511H265.83L272.08 64.6572Z" fill="#0B5EC4"/>
</g>
<g filter="url(#filter1_f_160_55)">
<path d="M272.08 64.6572L289.267 82.0392L289.629 86.475L290.057 93.6006L285.401 101.486L293.05 107.899L294.997 109.8L294.285 112.412L288.869 115.548L289.202 117.78L291.399 121.343L292.147 124.716L291.399 129.179L295.545 137.715V142.471L285.789 148.081L275.058 158.69L287.374 161.007L293.959 170.031L298.349 173.811L309.324 170.031L314.69 166.372L322.86 168.567L327.006 174.543L334.933 177.957H345.298L358.468 179.786L367.248 174.543L380.662 173.811L385.662 170.031L399.808 172.051L405.905 163.446L417.855 161.616L426.27 153.202L436.879 151.617L445.555 144.861L454.926 137.329L463.159 130.41L468.151 134.877L480.062 124.63L487.951 116.476L488.553 112.159L493.02 108.897L501.452 108.545L505.267 106.588L508.078 107.391L509.082 110.854H517.313L524.892 108.796L529.56 102.924L530.012 100.214L531.668 98.0552L534.579 98.4066V102.121L531.116 109.098L537.24 99.6112L538.896 98.8081L541.054 99.6112V102.422H542.209L544.309 103.939L535.339 117.622L528.193 121.727L507.668 126.744L498.85 129.785L480.758 150.31L484.407 156.695L470.723 172.051L444.269 192.88L412.646 214.773L391.056 232.409L360.041 244.268L333.282 255.671L319.903 266.314L327.505 301.738L330.546 331.385V365.898L321.119 369.09L319.599 401.626L313.822 410.748L319.599 428.385L327.201 455.295L331.762 460.92L327.201 465.329L332.978 493L331.762 521.279L332.978 548.646L331.306 580.421L327.961 617.974L323.4 628.617L325.224 638.651V655.071L331.762 659.176V667.082L319.903 674.988L323.4 680.461L319.903 687.303L322.184 692.016V704.787L324.464 714.061L341.948 730.177L356.392 739.147L370.987 741.884L379.502 749.03V762.713L356.392 769.403H337.539L313.214 761.193L284.175 759.368L270.947 754.655V744.165L272.924 740.06L274.9 728.049L279.157 714.061L280.83 699.314L279.157 680.461L274.9 678.637L268.971 671.643V662.673L270.947 649.142L267.299 618.886V596.689L264.41 579.509L267.299 564.457L266.386 554.423L259.089 532.074L252.703 495.585L247.078 497.105L235.675 523.712L227.009 545.301L225.184 564.457L216.518 592.432L215.15 599.882L211.045 627.248L211.805 640.78V660.088L206.636 676.204L208.612 689.279L200.859 699.314H192.344V703.723L196.449 709.5L197.818 722.879L200.859 741.428L207.396 756.632L217.735 764.994L219.559 778.069V788.407L208.612 795.249H185.959L166.042 789.167L164.066 769.859L159.353 748.118L158.288 730.329V704.939L146.125 696.425L149.318 676.204L144.605 662.521L147.798 629.073L146.277 621.471L151.447 610.828V599.882L158.896 579.053V567.65L163.576 557.738V536.093L158.687 461.948L166.216 418.345L163.576 404.363L165.531 389.404L158.687 379.823L151.648 341.594V317.445L155.168 299.944L162.989 286.94L161.034 283.909L150.67 298.379L128.965 328.2L109.704 344.918L96.3094 349.709L80.2749 342.181L61.5028 327.32L56.9075 311.481L59.4496 296.228L58.2763 288.798L70.4977 265.626L86.5322 250.96L82.9147 240.694L87.2166 235.903L85.8478 227.886L89.7587 224.66L90.3453 219.087L97.2834 214.65H43.3796L38.1063 129.107H127.555L130.289 125.787H158.218L160.171 129.107H190.834L185.756 107.624L189.662 93.7574L201.966 74.6176L233.019 60.7511H265.83L272.08 64.6572Z" stroke="#DBEDFF" stroke-width="2"/>
</g>
<path d="M272.08 64.6572L289.267 82.0392L289.629 86.475L290.057 93.6006L285.401 101.486L293.05 107.899L294.997 109.8L294.285 112.412L288.869 115.548L289.202 117.78L291.399 121.343L292.147 124.716L291.399 129.179L295.545 137.715V142.471L285.789 148.081L275.058 158.69L287.374 161.007L293.959 170.031L298.349 173.811L309.324 170.031L314.69 166.372L322.86 168.567L327.006 174.543L334.933 177.957H345.298L358.468 179.786L367.248 174.543L380.662 173.811L385.662 170.031L399.808 172.051L405.905 163.446L417.855 161.616L426.27 153.202L436.879 151.617L445.555 144.861L454.926 137.329L463.159 130.41L468.151 134.877L480.062 124.63L487.951 116.476L488.553 112.159L493.02 108.897L501.452 108.545L505.267 106.588L508.078 107.391L509.082 110.854H517.313L524.892 108.796L529.56 102.924L530.012 100.214L531.668 98.0552L534.579 98.4066V102.121L531.116 109.098L537.24 99.6112L538.896 98.8081L541.054 99.6112V102.422H542.209L544.309 103.939L535.339 117.622L528.193 121.727L507.668 126.744L498.85 129.785L480.758 150.31L484.407 156.695L470.723 172.051L444.269 192.88L412.646 214.773L391.056 232.409L360.041 244.268L333.282 255.671L319.903 266.314L327.505 301.738L330.546 331.385V365.898L321.119 369.09L319.599 401.626L313.822 410.748L319.599 428.385L327.201 455.295L331.762 460.92L327.201 465.329L332.978 493L331.762 521.279L332.978 548.646L331.306 580.421L327.961 617.974L323.4 628.617L325.224 638.651V655.071L331.762 659.176V667.082L319.903 674.988L323.4 680.461L319.903 687.303L322.184 692.016V704.787L324.464 714.061L341.948 730.177L356.392 739.147L370.987 741.884L379.502 749.03V762.713L356.392 769.403H337.539L313.214 761.193L284.175 759.368L270.947 754.655V744.165L272.924 740.06L274.9 728.049L279.157 714.061L280.83 699.314L279.157 680.461L274.9 678.637L268.971 671.643V662.673L270.947 649.142L267.299 618.886V596.689L264.41 579.509L267.299 564.457L266.386 554.423L259.089 532.074L252.703 495.585L247.078 497.105L235.675 523.712L227.009 545.301L225.184 564.457L216.518 592.432L215.15 599.882L211.045 627.248L211.805 640.78V660.088L206.636 676.204L208.612 689.279L200.859 699.314H192.344V703.723L196.449 709.5L197.818 722.879L200.859 741.428L207.396 756.632L217.735 764.994L219.559 778.069V788.407L208.612 795.249H185.959L166.042 789.167L164.066 769.859L159.353 748.118L158.288 730.329V704.939L146.125 696.425L149.318 676.204L144.605 662.521L147.798 629.073L146.277 621.471L151.447 610.828V599.882L158.896 579.053V567.65L163.576 557.738V536.093L158.687 461.948L166.216 418.345L163.576 404.363L165.531 389.404L158.687 379.823L151.648 341.594V317.445L155.168 299.944L162.989 286.94L161.034 283.909L150.67 298.379L128.965 328.2L109.704 344.918L96.3094 349.709L80.2749 342.181L61.5028 327.32L56.9075 311.481L59.4496 296.228L58.2763 288.798L70.4977 265.626L86.5322 250.96L82.9147 240.694L87.2166 235.903L85.8478 227.886L89.7587 224.66L90.3453 219.087L97.2834 214.65H43.3796L38.1063 129.107H127.555L130.289 125.787H158.218L160.171 129.107H190.834L185.756 107.624L189.662 93.7574L201.966 74.6176L233.019 60.7511H265.83L272.08 64.6572Z" stroke="#DBEDFF" stroke-width="2"/>
<defs>
<filter id="filter0_f_160_55" x="-21.8937" y="0.751099" width="626.203" height="854.498" filterUnits="userSpaceOnUse" color-interpolation-filters="sRGB">
<feFlood flood-opacity="0" result="BackgroundImageFix"/>
<feBlend mode="normal" in="SourceGraphic" in2="BackgroundImageFix" result="shape"/>
<feGaussianBlur stdDeviation="30" result="effect1_foregroundBlur_160_55"/>
</filter>
<filter id="filter1_f_160_55" x="27.0428" y="49.7511" width="528.627" height="756.498" filterUnits="userSpaceOnUse" color-interpolation-filters="sRGB">
<feFlood flood-opacity="0" result="BackgroundImageFix"/>
<feBlend mode="normal" in="SourceGraphic" in2="BackgroundImageFix" result="shape"/>
<feGaussianBlur stdDeviation="5" result="effect1_foregroundBlur_160_55"/>
</filter>
</defs>
</svg>
