<svg width="688" height="620" viewBox="0 0 688 620" fill="none" xmlns="http://www.w3.org/2000/svg">
<g filter="url(#filter0_f_238_1023)">
<path d="M311.036 111.775L319.867 82.9016H336.512L356.893 66.2571L377.614 60.1428H406.487L429.586 76.4476L441.814 94.1112L445.211 98.5271V108.378L441.814 111.775L445.211 122.645L468.615 128.049L474.487 126.468L480.585 128.049L482.618 130.759L511.335 142.039L523.352 149.659L545.042 165.487L563.511 196.756L572.665 230.982H581.42L593.758 255.258L587.788 270.779L590.972 299.035H606.783L627.532 318.98V359.239L604.21 386.521L594.869 389.858L580.857 402.535L568.402 408.763L559.505 434.118L570.848 431.671L580.857 434.118L589.309 446.796L592.422 472.818L598.65 499.286L609.548 519.08L604.272 533.966L590.701 543.768L557.156 548.908L545.871 541.034L553.606 519.08L545.871 510.16L530.772 505.476L507.352 519.08L483.347 541.034L444.12 563.439L403.721 572.807L372.69 568.123L350.441 548.908L343.415 527.725L356.296 486.155L364.453 472.818L399.622 415.311L359.224 389.858L364.453 472.818L356.296 486.155L343.415 527.725L350.441 548.908H322.728H290.818H269.258L258.909 541.034V533.966L284.781 522.283L309.36 510.16V470.97L314.535 468.814L292.974 376.967H287.369L279.607 331.69L287.369 316.167L299.874 306.68L307.204 301.506L339.976 299.035L391.289 316.167V301.506H400.345L395.17 295.038L383.096 299.035L374.903 295.038L366.279 288.139L339.976 299.035L307.204 301.506L279.607 273.909L256.753 234.238L247.266 251.486L225.706 234.238L241.23 206.209L238.211 201.035L241.23 196.756H222.257L199.834 188.961L187.76 177.75V169.126H173.962L167.493 165.245H104.106L102.58 166.836H41.5856L38.1064 159.279L41.5856 150.388H109.044L110.204 136.858H117.742V147.875L122.961 153.481H146.735L150.601 145.363H176.116L179.401 142.27H218.253L220.379 140.337H248.599L251.885 143.43H319.867L326.689 152.708H330.554L333.454 155.027V158.313L340.799 162.952V153.867L345.244 140.337L340.799 136.471H328.428L319.867 132.605L323.596 121.201L315.478 114.823L311.036 111.775Z" fill="#0B5EC4"/>
</g>
<g filter="url(#filter1_f_238_1023)">
<path d="M545.871 541.034L557.156 548.908L590.701 543.768L604.272 533.966L609.548 519.08L598.65 499.286L592.422 472.818L589.309 446.796L580.857 434.118L570.848 431.671L559.505 434.118L568.402 408.763L580.857 402.535L594.869 389.858L604.21 386.521L627.532 359.239V318.98L606.783 299.035H590.972L587.788 270.779L593.758 255.258L581.42 230.982H572.665L563.511 196.756L545.042 165.487L523.352 149.659L511.335 142.039L482.618 130.759L480.585 128.049L474.487 126.468L468.615 128.049L445.211 122.645L441.814 111.775L445.211 108.378V98.5271L441.814 94.1112L429.586 76.4476L406.487 60.1428H377.614L356.893 66.2571L336.512 82.9016H319.867L311.036 111.775L315.478 114.823L323.596 121.201L319.867 132.605L328.428 136.471H340.799L345.244 140.337L340.799 153.867V162.952L333.454 158.313V155.027L330.554 152.708H326.689L319.867 143.43H251.885L248.599 140.337H220.379L218.253 142.27H179.401L176.116 145.363H150.601L146.735 153.481H122.961L117.742 147.875V136.858H110.204C110.204 136.858 109.43 145.878 109.044 150.388H41.5856L38.1064 159.279L41.5856 166.836H102.58L104.106 165.245H167.493L173.962 169.126H187.76V177.75L199.834 188.961L222.257 196.756H241.23L238.211 201.035L241.23 206.209L225.706 234.238L247.266 251.486L256.753 234.238L279.607 273.909L307.204 301.506M553.606 519.08L545.871 510.16L530.772 505.476L507.352 519.08L483.347 541.034L444.12 563.439L403.721 572.807L372.69 568.123L350.441 548.908M350.441 548.908L343.416 527.725L356.296 486.155L364.453 472.818M350.441 548.908H322.728H290.818H269.258L258.909 541.034V533.966L284.781 522.283L309.36 510.16V470.97L314.535 468.814L292.974 376.967H287.369L279.607 331.69L287.369 316.167L299.874 306.68L307.204 301.506M364.453 472.818L399.622 415.311L359.224 389.858L364.453 472.818ZM307.204 301.506L339.976 299.035M339.976 299.035L391.289 316.167V301.506H400.345L395.17 295.038L383.096 299.035L374.903 295.038L366.279 288.138L339.976 299.035Z" stroke="#DBEDFF" stroke-width="2"/>
</g>
<path d="M350.441 548.908L372.69 568.123L403.721 572.807L444.12 563.439L483.347 541.034L507.352 519.08L530.772 505.476L545.871 510.16L553.606 519.08L545.871 541.034L557.156 548.908L590.701 543.768L604.273 533.966L609.548 519.08L598.65 499.286L592.422 472.818L589.309 446.796L580.857 434.118L570.848 431.671L559.505 434.118L568.402 408.763L580.857 402.535L594.869 389.858L604.21 386.521L627.532 359.239V318.98L606.783 299.035H590.972L587.788 270.779L593.758 255.258L581.42 230.982H572.665L563.512 196.756L545.042 165.487L523.352 149.659L511.335 142.039L482.618 130.759L480.585 128.049L474.487 126.468L468.615 128.049L445.211 122.645L441.814 111.775L445.211 108.378V98.5271L441.814 94.1112L429.586 76.4476L406.487 60.1428H377.614L356.893 66.2571L336.512 82.9016H319.868L311.036 111.775L315.478 114.823L323.596 121.201L319.868 132.605L328.428 136.471H340.799L345.244 140.337L340.799 153.867V162.952L333.454 158.313V155.027L330.554 152.708H326.689L319.868 143.43H251.885L248.599 140.337H220.379L218.253 142.27H179.401L176.116 145.363H150.601L146.735 153.481H122.961L117.742 147.875V136.858H110.204L109.044 150.388H41.5857L38.1064 159.279L41.5857 166.836H102.58L104.106 165.245H167.493L173.962 169.126H187.76V177.75L199.834 188.961L222.257 196.756H241.23L238.211 201.035L241.23 206.209L225.706 234.238L247.267 251.486L256.753 234.238L279.607 273.909L307.204 301.506M350.441 548.908L343.416 527.725L356.296 486.155L364.453 472.818M350.441 548.908H269.258L258.909 541.034V533.966L284.781 522.283L309.36 510.16V470.97L314.535 468.814L292.974 376.967H287.369L279.607 331.69L287.369 316.167L299.874 306.68L307.204 301.506M364.453 472.818L399.622 415.311L359.224 389.858L364.453 472.818ZM307.204 301.506L339.976 299.035M339.976 299.035L391.289 316.167V301.506H400.345L395.17 295.038L383.096 299.035L374.903 295.038L366.279 288.139L339.976 299.035Z" stroke="#DBEDFF" stroke-width="2"/>
<defs>
<filter id="filter0_f_238_1023" x="-21.8936" y="0.142822" width="709.425" height="632.664" filterUnits="userSpaceOnUse" color-interpolation-filters="sRGB">
<feFlood flood-opacity="0" result="BackgroundImageFix"/>
<feBlend mode="normal" in="SourceGraphic" in2="BackgroundImageFix" result="shape"/>
<feGaussianBlur stdDeviation="30" result="effect1_foregroundBlur_238_1023"/>
</filter>
<filter id="filter1_f_238_1023" x="27.02" y="49.1428" width="611.512" height="534.682" filterUnits="userSpaceOnUse" color-interpolation-filters="sRGB">
<feFlood flood-opacity="0" result="BackgroundImageFix"/>
<feBlend mode="normal" in="SourceGraphic" in2="BackgroundImageFix" result="shape"/>
<feGaussianBlur stdDeviation="5" result="effect1_foregroundBlur_238_1023"/>
</filter>
</defs>
</svg>
