<svg width="537" height="782" viewBox="0 0 537 782" fill="none" xmlns="http://www.w3.org/2000/svg">
<g filter="url(#filter0_f_160_44)">
<path d="M313.497 81.8944L320.61 101.368L322.659 113.932H308.774L306.909 121.244L302.764 127.243L306.909 143.742L299.448 146.522V154.803L293.024 163.615L295.51 170.552L302.764 177.676V174.301L306.909 170.552H314.162L316.027 168.677H321.416L322.659 173.364L333.228 174.301V163.615H321.416L318.722 154.803L322.659 149.179H329.291L331.571 145.241H339.446L345.456 150.491H370.117L376.335 154.803L372.812 163.615L362.45 167.364V174.301H371.568L370.117 180.863L416.06 184.238L419.012 187.237L434.984 170.552H441.409L440.165 198.486H476.018V205.581H440.165H426.926L424.147 212.157L416.06 208.482L412.388 212.157L419.012 217.669L417.167 222.508L419.012 229.853L416.06 235.639V242.426L408.68 253.331L395.15 256.113L391.486 260.075L373.105 288.844L341.937 301.646L315.164 291.886L285.995 257.545L277.603 270.558L290.39 280.745L285.995 298.393L265.616 328.758L256.645 345.025L238.444 343.086L244.837 350.086L256.645 360.93V376.836L275.605 406.84L296.783 438.289L311.968 482.467L323.556 502.995L329.949 559.026L333.545 573.847L325.953 592.762L335.943 605.863V621.202L325.953 631.685L328.75 660.604L349.529 686.385L368.31 693.138L383.893 702.899V714.466L340.738 721.696L311.169 712.294L274.007 705.571L276.405 689.524L285.595 662.773L280.4 635.308L272.009 629.334L268.013 618.488L276.405 605.863L268.013 592.762L264.017 530.107L248.433 515.286L251.231 505.526L241.64 499.742L192.232 447.522L168.344 482.467V511.741L155.27 541.015V592.762L147.82 603.112L152.001 618.488L145.312 628.361H134.899L133.255 640.921L123.824 650.952L124.753 657.114L147.82 679.102L158.192 684.844L174.601 686.385L182.806 695.068L186.677 708.652L179.71 712.294L153.547 717.475L126.766 714.955L109.737 705.571L91.7145 701.989L89.0203 704.426H81.9479L60.3942 696.505L63.4252 682.185L71.1711 660.249V652.328L75.7626 635.308V629.334L73.8046 621.652L79.7011 615.251L73.8046 605.863L75.7626 583.73L82.6028 533.273L91.1409 509.677V486.684L97.7154 428.72V386.558L102.203 355.844V343.086L97.7154 336.707L102.203 332.647L103.324 326.558H108.293V313.51H95.3115L90.9844 307.131L91.7857 280.745L94.0294 263.057L99.7987 248.849L107.29 246.041L112.512 232.655V219.663L125.786 202.143V196.828L136.666 191.119L138.624 182.261L152.122 168.364L170.538 151.08L185.513 149.091L194.461 146.522L208.373 145.65V140.786L216.035 136.593L215.479 132.736L218.408 129.986L212.231 128.293L206.99 123.213V101.368L210.359 95.78L222.339 75.629L240.308 63.0981L271.381 60.8967L296.838 67.5008L313.497 81.8944Z" fill="#0B5EC4"/>
</g>
<g filter="url(#filter1_f_160_44)">
<path d="M313.497 81.8944L320.61 101.368L322.659 113.932H308.774L306.909 121.244L302.764 127.243L306.909 143.742L299.448 146.522V154.803L293.024 163.615L295.51 170.552L302.764 177.676V174.301L306.909 170.552H314.162L316.027 168.677H321.416L322.659 173.364L333.228 174.301V163.615H321.416L318.722 154.803L322.659 149.179H329.291L331.571 145.241H339.446L345.456 150.491H370.117L376.335 154.803L372.812 163.615L362.45 167.364V174.301H371.568L370.117 180.863L416.06 184.238L419.012 187.237L434.984 170.552H441.409L440.165 198.486H476.018V205.581H440.165H426.926L424.147 212.157L416.06 208.482L412.388 212.157L419.012 217.669L417.167 222.508L419.012 229.853L416.06 235.639V242.426L408.68 253.331L395.15 256.113L391.486 260.075L373.105 288.844L341.937 301.646L315.164 291.886L285.995 257.545L277.603 270.558L290.39 280.745L285.995 298.393L265.616 328.758L256.645 345.025L238.444 343.086L244.837 350.086L256.645 360.93V376.836L275.605 406.84L296.783 438.289L311.968 482.467L323.556 502.995L329.949 559.026L333.545 573.847L325.953 592.762L335.943 605.863V621.202L325.953 631.685L328.75 660.604L349.529 686.385L368.31 693.138L383.893 702.899V714.466L340.738 721.696L311.169 712.294L274.007 705.571L276.405 689.524L285.595 662.773L280.4 635.308L272.009 629.334L268.013 618.488L276.405 605.863L268.013 592.762L264.017 530.107L248.433 515.286L251.231 505.526L241.64 499.742L192.232 447.522L168.344 482.467V511.741L155.27 541.015V592.762L147.82 603.112L152.001 618.488L145.312 628.361H134.899L133.255 640.921L123.824 650.952L124.753 657.114L147.82 679.102L158.192 684.844L174.601 686.385L182.806 695.068L186.677 708.652L179.71 712.294L153.547 717.475L126.766 714.955L109.737 705.571L91.7145 701.989L89.0203 704.426H81.9479L60.3942 696.505L63.4252 682.185L71.1711 660.249V652.328L75.7626 635.308V629.334L73.8046 621.652L79.7011 615.251L73.8046 605.863L75.7626 583.73L82.6028 533.273L91.1409 509.677V486.684L97.7154 428.72V386.558L102.203 355.844V343.086L97.7154 336.707L102.203 332.647L103.324 326.558H108.293V313.51H95.3115L90.9844 307.131L91.7857 280.745L94.0294 263.057L99.7987 248.849L107.29 246.041L112.512 232.655V219.663L125.786 202.143V196.828L136.666 191.119L138.624 182.261L152.122 168.364L170.538 151.08L185.513 149.091L194.461 146.522L208.373 145.65V140.786L216.035 136.593L215.479 132.736L218.408 129.986L212.231 128.293L206.99 123.213V101.368L210.359 95.78L222.339 75.629L240.308 63.0981L271.381 60.8967L296.838 67.5008L313.497 81.8944Z" stroke="#DBEDFF" stroke-width="2"/>
</g>
<path d="M313.497 81.8944L320.61 101.368L322.659 113.932H308.774L306.909 121.244L302.764 127.243L306.909 143.742L299.448 146.522V154.803L293.024 163.615L295.511 170.552L302.764 177.676V174.301L306.909 170.552H314.162L316.027 168.677H321.416L322.659 173.364L333.228 174.301V163.615H321.416L318.722 154.803L322.659 149.179H329.291L331.571 145.241H339.446L345.456 150.491H370.118L376.335 154.803L372.812 163.615L362.45 167.364V174.301H371.568L370.118 180.863L416.06 184.238L419.012 187.237L434.984 170.552H441.409L440.165 198.486H499.12V205.581H440.165H426.926L424.147 212.157L416.06 208.482L412.388 212.157L419.012 217.669L417.167 222.508L419.012 229.853L416.06 235.639V242.426L408.68 253.331L395.15 256.113L391.486 260.075L373.105 288.844L341.937 301.646L315.165 291.886L285.995 257.545L277.603 270.558L290.39 280.745L285.995 298.393L265.616 328.758L256.645 345.025L238.444 343.086L244.837 350.086L256.645 360.93V376.836L275.605 406.84L296.783 438.289L311.968 482.467L323.556 502.995L329.949 559.026L333.546 573.847L325.953 592.762L335.943 605.863V621.202L325.953 631.685L328.75 660.605L349.529 686.385L368.31 693.138L380.617 695.98L383.893 702.899V714.466L365.457 721.696H340.738L300.368 709.755L294.631 705.571L291.995 708.652L274.007 705.571L276.405 689.524L285.595 662.773L280.4 635.308L272.009 629.334L268.013 618.488L276.405 605.863L268.013 592.762L264.017 530.107L248.433 515.286L251.231 505.526L241.64 499.742L192.232 447.522L168.344 482.467V511.741L155.27 541.015V592.762L147.82 603.112L152.001 618.488L145.312 628.361H134.899L133.255 640.921L115.838 647.788L114.416 655.804L147.82 679.102L158.192 684.844L174.601 686.385L182.806 695.068L186.677 708.652L179.71 712.294L153.547 717.476L126.766 714.955L109.737 705.571L91.7145 701.989L89.0203 704.426H81.9479L60.3942 696.505L63.4252 682.185L71.1711 660.249V652.328L75.7626 635.308V629.334L73.8046 621.652L79.7011 615.251L73.8046 605.863L75.7626 583.73L82.6028 533.273L91.1409 509.677V486.684L97.7154 428.72V386.558L102.203 355.844V343.086L97.7154 336.707L102.203 332.647L103.324 326.558H108.293V313.51H95.3115L90.9844 307.131L91.7857 280.745L94.0294 263.057L99.7987 248.849L107.29 246.041L112.512 232.655V219.663L125.786 202.143V196.828L136.666 191.119L138.624 182.261L152.122 168.364L170.538 151.08L185.513 149.091L194.461 146.522L208.373 145.65V140.786L216.035 136.593L215.479 132.736L218.408 129.986L212.231 128.293L206.99 123.213V101.368L210.359 95.78L222.339 75.629L240.308 63.0981L271.381 60.8967L296.838 67.5008L313.497 81.8944Z" stroke="#DBEDFF" stroke-width="2"/>
<defs>
<filter id="filter0_f_160_44" x="0.394165" y="0.896729" width="535.624" height="780.799" filterUnits="userSpaceOnUse" color-interpolation-filters="sRGB">
<feFlood flood-opacity="0" result="BackgroundImageFix"/>
<feBlend mode="normal" in="SourceGraphic" in2="BackgroundImageFix" result="shape"/>
<feGaussianBlur stdDeviation="30" result="effect1_foregroundBlur_160_44"/>
</filter>
<filter id="filter1_f_160_44" x="49.2366" y="49.8877" width="437.781" height="682.834" filterUnits="userSpaceOnUse" color-interpolation-filters="sRGB">
<feFlood flood-opacity="0" result="BackgroundImageFix"/>
<feBlend mode="normal" in="SourceGraphic" in2="BackgroundImageFix" result="shape"/>
<feGaussianBlur stdDeviation="5" result="effect1_foregroundBlur_160_44"/>
</filter>
</defs>
</svg>
