<svg width="560" height="602" viewBox="0 0 560 602" fill="none" xmlns="http://www.w3.org/2000/svg">
<g filter="url(#filter0_f_160_139)">
<path d="M251.385 107.083L254.329 112.079L251.385 113.272L243.209 114.848V123.911L242.18 128.718L238.846 137.251L239.945 140.148V142.974L235.579 145.805L234.818 148.709L240.775 149.846L247.239 155.78H266.503L282.979 160.326L310.355 170.806L322.522 167.144L333.801 170.806L346.095 169.796L356.234 167.902L368.908 165.503L413.647 163.735L435.319 159.568L439.502 162.472H442.67L450.021 157.801L464.849 155.023L493.619 150.856L499.069 152.75L497.295 157.801L476.763 164.871L481.959 172.195L482.973 183.054L472.327 197.448L463.836 199.974L458.766 196.564L457.879 191.009L436.84 189.872L433.925 193.913L428.222 197.448L413.647 198.963L388.553 210.327L367.767 217.777L309.594 218.535L269.164 222.575L254.589 227.878L252.435 232.55L263.208 236.97L283.866 243.662V235.707L293.752 231.288L313.016 241.642L318.339 249.091L313.016 257.93L303.384 260.329L332.154 280.153L333.928 278.638L385.891 310.583L409.465 300.103L412.886 303.133L400.086 327.629L437.727 350.862L432.531 358.691L426.194 354.145L396.41 336.341L394.383 340.003L387.158 336.341L389.566 330.533L382.469 327.629L380.441 333.058L374.992 330.533L372.33 333.058L321.254 300.608L309.087 327.629L319.987 338.867L327.845 350.609L326.07 355.786V365.256L323.409 373.969L322.141 387.479L314.664 406.167L312.382 421.192L303.131 436.723L301.99 448.971L294.512 460.209H286.781L286.021 471.32L278.797 479.022L281.078 485.21L289.95 498.215L305.412 510.21L314.917 512.104L323.535 515.261L328.732 521.953V532.559L318.846 536.853L301.103 541.019L279.177 538.115L261.307 530.16H251.168L227.409 523.736L230.049 499.432L233.69 482.837L240.5 477.995L245.875 455.047L240.5 450.84V441.278L245.875 431.717L254.705 422.92V411.446L260.847 392.705L243.188 401.502L212.475 411.446H181.763L172.934 413.741L160.265 458.49V471.493L154.89 481.438V495.972L149.9 506.681V516.242L137.999 529.629L119.188 536.131L103.448 533.071L89.6272 521.979L77.7264 503.621H73.8874L62.7543 498.649L60.8347 481.438L62.7543 455.047L71.2001 428.274L73.8874 399.207V363.255L83.101 342.601V324.243L77.7264 317.741L71.9679 308.561V256.163L90.5205 238.919L94.5086 223.026L97.9819 195.342L102.871 179.834L110.975 167.402L121.524 160.352L124.869 155.995L130.272 152.534L138.12 151.509L139.02 148.048L144.424 145.485L157.674 148.048L159.089 139.077L163.335 137.41L161.919 132.925L164.106 129.592L157.674 127.926L151.885 119.98L155.358 101.908L161.662 82.1704L172.997 68.4152L192.403 60.9206L220.531 63.3102L239.283 75.8011L248.768 91.8764L251.385 107.083Z" fill="#0B5EC4"/>
</g>
<g filter="url(#filter1_f_160_139)">
<path d="M251.385 107.083L254.329 112.079L251.385 113.272L243.209 114.848V123.911L242.18 128.718L238.846 137.251L239.945 140.148V142.974L235.579 145.805L234.818 148.709L240.775 149.846L247.239 155.78H266.503L282.979 160.326L310.355 170.806L322.522 167.144L333.801 170.806L346.095 169.796L356.234 167.902L368.908 165.503L413.647 163.735L435.319 159.568L439.502 162.472H442.67L450.021 157.801L464.849 155.023L493.619 150.856L499.069 152.75L497.295 157.801L476.763 164.871L481.959 172.195L482.973 183.054L472.327 197.448L463.836 199.974L458.766 196.564L457.879 191.009L436.84 189.872L433.925 193.913L428.222 197.448L413.647 198.963L388.553 210.327L367.767 217.777L309.594 218.535L269.164 222.575L254.589 227.878L252.435 232.55L263.208 236.97L283.866 243.662V235.707L293.752 231.288L313.016 241.642L318.339 249.091L313.016 257.93L303.384 260.329L332.154 280.153L333.928 278.638L385.891 310.583L409.465 300.103L412.886 303.133L400.086 327.629L437.727 350.862L432.531 358.691L426.194 354.145L396.41 336.341L394.383 340.003L387.158 336.341L389.566 330.533L382.469 327.629L380.441 333.058L374.992 330.533L372.33 333.058L321.254 300.608L309.087 327.629L319.987 338.867L327.845 350.609L326.07 355.786V365.256L323.409 373.969L322.141 387.479L314.664 406.167L312.382 421.192L303.131 436.723L301.99 448.971L294.512 460.209H286.781L286.021 471.32L278.797 479.022L281.078 485.21L289.95 498.215L305.412 510.21L314.917 512.104L323.535 515.261L328.732 521.953V532.559L318.846 536.853L301.103 541.019L279.177 538.115L261.307 530.16H251.168L227.409 523.736L230.049 499.432L233.69 482.837L240.5 477.995L245.875 455.047L240.5 450.84V441.278L245.875 431.717L254.705 422.92V411.446L260.847 392.705L243.188 401.502L212.475 411.446H181.763L172.934 413.741L160.265 458.49V471.493L154.89 481.438V495.972L149.9 506.681V516.242L137.999 529.629L119.188 536.131L103.448 533.071L89.6272 521.979L77.7264 503.621H73.8874L62.7543 498.649L60.8347 481.438L62.7543 455.047L71.2001 428.274L73.8874 399.207V363.255L83.101 342.601V324.243L77.7264 317.741L71.9679 308.561V256.163L90.5205 238.919L94.5086 223.026L97.9819 195.342L102.871 179.834L110.975 167.402L121.524 160.352L124.869 155.995L130.272 152.534L138.12 151.509L139.02 148.048L144.424 145.485L157.674 148.048L159.089 139.077L163.335 137.41L161.919 132.925L164.106 129.592L157.674 127.926L151.885 119.98L155.358 101.908L161.662 82.1704L172.997 68.4152L192.403 60.9206L220.531 63.3102L239.283 75.8011L248.768 91.8764L251.385 107.083Z" stroke="#DBEDFF" stroke-width="2"/>
</g>
<path d="M251.385 107.083L254.329 112.079L251.385 113.272L243.209 114.848V123.911L242.18 128.718L238.846 137.251L239.945 140.148V142.974L235.579 145.805L234.818 148.709L240.775 149.846L247.239 155.78H266.503L282.979 160.326L310.355 170.806L322.522 167.144L333.801 170.806L346.095 169.796L356.234 167.902L368.908 165.503L413.647 163.735L435.319 159.568L439.502 162.472H442.67L450.021 157.801L464.849 155.023L493.619 150.856L499.069 152.75L497.295 157.801L476.763 164.871L481.959 172.195L482.973 183.054L472.327 197.448L463.836 199.974L458.766 196.564L457.879 191.009L436.84 189.872L433.925 193.913L428.222 197.448L413.647 198.963L388.553 210.327L367.767 217.777L309.594 218.535L269.164 222.575L254.589 227.878L252.435 232.55L263.208 236.97L283.866 243.662V235.707L293.752 231.288L313.016 241.642L318.339 249.091L313.016 257.93L303.384 260.329L332.154 280.153L333.928 278.638L385.891 310.583L409.465 300.103L412.886 303.133L400.086 327.629L437.727 350.862L432.531 358.691L426.194 354.145L396.41 336.341L394.383 340.003L387.158 336.341L389.566 330.533L382.469 327.629L380.441 333.058L374.992 330.533L372.33 333.058L321.254 300.608L309.087 327.629L319.987 338.867L327.845 350.609L326.07 355.786V365.256L323.409 373.969L322.141 387.479L314.664 406.167L312.382 421.192L303.131 436.723L301.99 448.971L294.512 460.209H286.781L286.021 471.32L278.797 479.022L281.078 485.21L289.95 498.215L305.412 510.21L314.917 512.104L323.535 515.261L328.732 521.953V532.559L318.846 536.853L301.103 541.019L279.177 538.115L261.307 530.16H251.168L227.409 523.736L230.049 499.432L233.69 482.837L240.5 477.995L245.875 455.047L240.5 450.84V441.278L245.875 431.717L254.705 422.92V411.446L260.847 392.705L243.188 401.502L212.475 411.446H181.763L172.934 413.741L160.265 458.49V471.493L154.89 481.438V495.972L149.9 506.681V516.242L137.999 529.629L119.188 536.131L103.448 533.071L89.6272 521.979L77.7264 503.621H73.8874L62.7543 498.649L60.8347 481.438L62.7543 455.047L71.2001 428.274L73.8874 399.207V363.255L83.101 342.601V324.243L77.7264 317.741L71.9679 308.561V256.163L90.5205 238.919L94.5086 223.026L97.9819 195.342L102.871 179.834L110.975 167.402L121.524 160.352L124.869 155.995L130.272 152.534L138.12 151.509L139.02 148.048L144.424 145.485L157.674 148.048L159.089 139.077L163.335 137.41L161.919 132.925L164.106 129.592L157.674 127.926L151.885 119.98L155.358 101.908L161.662 82.1704L172.997 68.4152L192.403 60.9206L220.531 63.3102L239.283 75.8011L248.768 91.8764L251.385 107.083Z" stroke="#DBEDFF" stroke-width="2"/>
<defs>
<filter id="filter0_f_160_139" x="0.834717" y="0.920593" width="558.234" height="600.099" filterUnits="userSpaceOnUse" color-interpolation-filters="sRGB">
<feFlood flood-opacity="0" result="BackgroundImageFix"/>
<feBlend mode="normal" in="SourceGraphic" in2="BackgroundImageFix" result="shape"/>
<feGaussianBlur stdDeviation="30" result="effect1_foregroundBlur_160_139"/>
</filter>
<filter id="filter1_f_160_139" x="49.8307" y="49.9047" width="460.514" height="502.13" filterUnits="userSpaceOnUse" color-interpolation-filters="sRGB">
<feFlood flood-opacity="0" result="BackgroundImageFix"/>
<feBlend mode="normal" in="SourceGraphic" in2="BackgroundImageFix" result="shape"/>
<feGaussianBlur stdDeviation="5" result="effect1_foregroundBlur_160_139"/>
</filter>
</defs>
</svg>
