<svg width="560" height="601" viewBox="0 0 560 601" fill="none" xmlns="http://www.w3.org/2000/svg">
<g filter="url(#filter0_f_160_63)">
<path d="M308.567 106.171L305.623 111.167L308.567 112.36L316.743 113.936V122.999L317.772 127.806L321.106 136.339L320.007 139.236V142.062L324.373 144.893L325.134 147.797L319.177 148.934L312.713 154.868H293.449L276.973 159.414L249.597 169.894L237.43 166.232L226.15 169.894L213.857 168.884L203.718 166.99L191.044 164.591L146.305 162.823L124.633 158.656L120.45 161.56H117.282L109.931 156.889L95.1024 154.111L66.3327 149.944L60.8829 151.838L62.6572 156.889L83.1889 163.959L77.9926 171.283L76.9787 182.142L87.6248 196.536L96.1163 199.062L101.186 195.652L102.073 190.097L123.112 188.96L126.027 193.001L131.73 196.536L146.305 198.051L171.399 209.415L192.184 216.865L250.358 217.623L290.787 221.663L305.362 226.966L307.517 231.638L296.744 236.058L276.086 242.75V234.795L266.2 230.376L246.936 240.73L241.613 248.179L246.936 257.018L256.568 259.417L227.798 279.241L226.024 277.726L174.061 309.671L150.487 299.191L147.065 302.221L159.866 326.717L122.225 349.95L127.421 357.779L133.758 353.233L163.541 335.429L165.569 339.091L172.793 335.429L170.385 329.621L177.483 326.717L179.511 332.146L184.96 329.621L187.622 332.146L238.698 299.696L250.865 326.717L239.965 337.955L232.107 349.698L233.882 354.874V364.344L236.543 373.057L237.81 386.567L245.288 405.255L247.569 420.28L256.821 435.811L257.962 448.059L265.44 459.297H273.171L273.931 470.408L281.155 478.111L278.874 484.298L270.002 497.303L254.54 509.298L245.035 511.192L236.416 514.349L231.22 521.041V531.647L241.106 535.941L258.849 540.107L280.775 537.203L298.645 529.248H308.784L332.543 522.824L329.903 498.52L326.262 481.925L319.452 477.083L314.077 454.135L319.452 449.928V440.366L314.077 430.805L305.247 422.008V410.534L299.105 391.793L316.764 400.59L347.476 410.534H378.188L387.018 412.829L399.687 457.578V470.582L405.061 480.526V495.06L410.052 505.769V515.33L421.953 528.717L440.764 535.219L456.504 532.159L470.325 521.067L482.225 502.709H486.064L497.198 497.737L499.117 480.526L497.198 454.135L488.752 427.362L486.064 398.295V362.343L476.851 341.689V323.331L482.225 316.829L487.984 307.649V255.251L469.431 238.007L465.443 222.114L461.97 194.43L457.081 178.922L448.977 166.49L438.427 159.44L435.083 155.083L429.68 151.622L421.832 150.597L420.931 147.136L415.528 144.573L402.278 147.136L400.863 138.165L396.617 136.499L398.032 132.013L395.845 128.68L402.278 127.014L408.067 119.068L404.593 100.996L398.29 81.2584L386.955 67.5032L367.548 60.0086L339.421 62.3982L320.668 74.8891L311.184 90.9644L308.567 106.171Z" fill="#0B5EC4"/>
</g>
<g filter="url(#filter1_f_160_63)">
<path d="M308.567 106.171L305.623 111.167L308.567 112.36L316.743 113.936V122.999L317.772 127.806L321.106 136.339L320.007 139.236V142.062L324.373 144.893L325.134 147.797L319.177 148.934L312.713 154.868H293.449L276.973 159.414L249.597 169.894L237.43 166.232L226.15 169.894L213.857 168.884L203.718 166.99L191.044 164.591L146.305 162.823L124.633 158.656L120.45 161.56H117.282L109.931 156.889L95.1024 154.111L66.3327 149.944L60.8829 151.838L62.6572 156.889L83.1889 163.959L77.9926 171.283L76.9787 182.142L87.6248 196.536L96.1163 199.062L101.186 195.652L102.073 190.097L123.112 188.96L126.027 193.001L131.73 196.536L146.305 198.051L171.399 209.415L192.184 216.865L250.358 217.623L290.787 221.663L305.362 226.966L307.517 231.638L296.744 236.058L276.086 242.75V234.795L266.2 230.376L246.936 240.73L241.613 248.179L246.936 257.018L256.568 259.417L227.798 279.241L226.024 277.726L174.061 309.671L150.487 299.191L147.065 302.221L159.866 326.717L122.225 349.95L127.421 357.779L133.758 353.233L163.541 335.429L165.569 339.091L172.793 335.429L170.385 329.621L177.483 326.717L179.511 332.146L184.96 329.621L187.622 332.146L238.698 299.696L250.865 326.717L239.965 337.955L232.107 349.698L233.882 354.874V364.344L236.543 373.057L237.81 386.567L245.288 405.255L247.569 420.28L256.821 435.811L257.962 448.059L265.44 459.297H273.171L273.931 470.408L281.155 478.111L278.874 484.298L270.002 497.303L254.54 509.298L245.035 511.192L236.416 514.349L231.22 521.041V531.647L241.106 535.941L258.849 540.107L280.775 537.203L298.645 529.248H308.784L332.543 522.824L329.903 498.52L326.262 481.925L319.452 477.083L314.077 454.135L319.452 449.928V440.366L314.077 430.805L305.247 422.008V410.534L299.105 391.793L316.764 400.59L347.476 410.534H378.188L387.018 412.829L399.687 457.578V470.582L405.061 480.526V495.06L410.052 505.769V515.33L421.953 528.717L440.764 535.219L456.504 532.159L470.325 521.067L482.225 502.709H486.064L497.198 497.737L499.117 480.526L497.198 454.135L488.752 427.362L486.064 398.295V362.343L476.851 341.689V323.331L482.225 316.829L487.984 307.649V255.251L469.431 238.007L465.443 222.114L461.97 194.43L457.081 178.922L448.977 166.49L438.427 159.44L435.083 155.083L429.68 151.622L421.832 150.597L420.931 147.136L415.528 144.573L402.278 147.136L400.863 138.165L396.617 136.499L398.032 132.013L395.845 128.68L402.278 127.014L408.067 119.068L404.593 100.996L398.29 81.2584L386.955 67.5032L367.548 60.0086L339.421 62.3982L320.668 74.8891L311.184 90.9644L308.567 106.171Z" stroke="#DBEDFF" stroke-width="2"/>
</g>
<path d="M308.567 106.171L305.623 111.167L308.567 112.36L316.743 113.936V122.999L317.772 127.806L321.106 136.339L320.007 139.236V142.062L324.373 144.893L325.134 147.797L319.177 148.934L312.713 154.868H293.449L276.973 159.414L249.597 169.894L237.43 166.232L226.15 169.894L213.857 168.884L203.718 166.99L191.044 164.591L146.305 162.823L124.633 158.656L120.45 161.56H117.282L109.931 156.889L95.1024 154.111L66.3327 149.944L60.8829 151.838L62.6572 156.889L83.1889 163.959L77.9926 171.283L76.9787 182.142L87.6248 196.536L96.1163 199.062L101.186 195.652L102.073 190.097L123.112 188.96L126.027 193.001L131.73 196.536L146.305 198.051L171.399 209.415L192.184 216.865L250.358 217.623L290.787 221.663L305.362 226.966L307.517 231.638L296.744 236.058L276.086 242.75V234.795L266.2 230.376L246.936 240.73L241.613 248.179L246.936 257.018L256.568 259.417L227.798 279.241L226.024 277.726L174.061 309.671L150.487 299.191L147.065 302.221L159.866 326.717L122.225 349.95L127.421 357.779L133.758 353.233L163.541 335.429L165.569 339.091L172.793 335.429L170.385 329.621L177.483 326.717L179.511 332.146L184.96 329.621L187.622 332.146L238.698 299.696L250.865 326.717L239.965 337.955L232.107 349.698L233.882 354.874V364.344L236.543 373.057L237.81 386.567L245.288 405.255L247.569 420.28L256.821 435.811L257.962 448.059L265.44 459.297H273.171L273.931 470.408L281.155 478.111L278.874 484.298L270.002 497.303L254.54 509.298L245.035 511.192L236.416 514.349L231.22 521.041V531.647L241.106 535.941L258.849 540.107L280.775 537.203L298.645 529.248H308.784L332.543 522.824L329.903 498.52L326.262 481.925L319.452 477.083L314.077 454.135L319.452 449.928V440.366L314.077 430.805L305.247 422.008V410.534L299.105 391.793L316.764 400.59L347.476 410.534H378.188L387.018 412.829L399.687 457.578V470.582L405.061 480.526V495.06L410.052 505.769V515.33L421.953 528.717L440.764 535.219L456.504 532.159L470.325 521.067L482.225 502.709H486.064L497.198 497.737L499.117 480.526L497.198 454.135L488.752 427.362L486.064 398.295V362.343L476.851 341.689V323.331L482.225 316.829L487.984 307.649V255.251L469.431 238.007L465.443 222.114L461.97 194.43L457.081 178.922L448.977 166.49L438.427 159.44L435.083 155.083L429.68 151.622L421.832 150.597L420.931 147.136L415.528 144.573L402.278 147.136L400.863 138.165L396.617 136.499L398.032 132.013L395.845 128.68L402.278 127.014L408.067 119.068L404.593 100.996L398.29 81.2584L386.955 67.5032L367.548 60.0086L339.421 62.3982L320.668 74.8891L311.184 90.9644L308.567 106.171Z" stroke="#DBEDFF" stroke-width="2"/>
<defs>
<filter id="filter0_f_160_63" x="0.882874" y="0.00860596" width="558.234" height="600.099" filterUnits="userSpaceOnUse" color-interpolation-filters="sRGB">
<feFlood flood-opacity="0" result="BackgroundImageFix"/>
<feBlend mode="normal" in="SourceGraphic" in2="BackgroundImageFix" result="shape"/>
<feGaussianBlur stdDeviation="30" result="effect1_foregroundBlur_160_63"/>
</filter>
<filter id="filter1_f_160_63" x="49.6068" y="48.9927" width="460.514" height="502.13" filterUnits="userSpaceOnUse" color-interpolation-filters="sRGB">
<feFlood flood-opacity="0" result="BackgroundImageFix"/>
<feBlend mode="normal" in="SourceGraphic" in2="BackgroundImageFix" result="shape"/>
<feGaussianBlur stdDeviation="5" result="effect1_foregroundBlur_160_63"/>
</filter>
</defs>
</svg>
